/* XPM */
static char *_96bf927386e4fa297223d73a5b37affqCz3Qjmy4GbAanRn[] = {
/* columns rows colors chars-per-pixel */
"32 32 20 1 ",
"  c #0C0A07",
". c #241D2B",
"X c #362623",
"o c #3A2B28",
"O c #242234",
"+ c #30263B",
"@ c #4C342F",
"# c #553D39",
"$ c #4C403D",
"% c #554C3C",
"& c #403353",
"* c #425059",
"= c #634A45",
"- c #5F7050",
"; c #6E6554",
": c #57636B",
"> c #6E7D61",
", c #8F9D84",
"< c #D2A394",
"1 c #E4B5A5",
/* pixels */
"&&&&&&&&&&&&O&&&&&&&&&&&&&&&&&&&",
"&&&&&&&&&&&&O&&&&&&&&&&&&&&&&&&&",
"&&&&&&&&&&&&O&&&&&&&&&&&&&&&&&&&",
"&&&&&&&&&&&OO&&&&&&&&&O&&&&&&&&&",
"&&&&&&&&&&&OO& &&  &&&O&&&&&&&&&",
"&&&&&&&&&OOOO @  @@   O&&&&&&&&&",
"&&&&&&&&&&&& @=@@==@@@ &&&&&&&&&",
"&&&&&&&&&&& ========= O&&&&&&&&&",
"&&&&&&&&&& @=======@@= &&&&&&&&&",
"&&&&&&&&& @@======@=== &O&&&&&&&",
"&&&&&&&&&& ===========@ &&&&&&&&",
"&&&&&&&&&& #==@=@====@ &&&&&&&&&",
"&&&&&&&&& ##===@=====# &&&&&&&&&",
"&&&&&&&&&& ##========## &&&&&&&&",
"&&&&&&&&&& ###======## &&&&&&&&&",
"&&&&&&&&&&& ##====### O&&&&&&&&&",
"&&&&&&&&&&&& ####### &O&&&&&&&&&",
"&&&&&&&&&&& o>o>>>o>o O&&&OO&&&&",
"&&&&&&&&&&& oo>>>>>oo OO&&O&&&&&",
"&&&&&&&&&& ooo>>>>>ooo OOO&&&&&&",
"&&&&&&OO&& $>o>,,,>o>$ O&&&&&&&&",
"&&&&&&OO& $$ >>--->> $$ &&&&&&&&",
"&&&&&&&O& 1< o>,,,>o <1 &&&&&&&&",
"&&&&&&&O&&   *******   &&&&&&&&&",
"&&&&&&&&&&&& *:::::* &&&&&&&&&&&",
"&&&&&&&&&&&& *:::::* &&&&&&&&&&&",
"&&&&&&&O&&&& *:* *:* &&&&&&&&&&&",
"&&&&&&&O&&&& ** & ** &&&&&&&&&&&",
"&&&&&&&&&&&& ;; & XX &&&&&&&&&&O",
"&&&&&&&&&&&&&  && %% &&&&&&&&&&&",
"&&&&&&&&O++++..+++..++++&&&&&&&&",
"&&&&&&&&O&+++++++++++++&&&&&&&&&"
};
