/* XPM */
static char *_ef973875d29432c96170b499cf7a5f4ITRUQ3S0fW4qsV9T[] = {
/* columns rows colors chars-per-pixel */
"32 32 2 1 ",
"  c #242234",
". c #403353",
/* pixels */
"............ ...................",
"............ ...................",
"............ ...................",
"...........  ......... .........",
"...........  ......... .........",
".........    ......... .........",
"............ ......... .........",
"............ ......... .........",
"............ ......... .........",
"............ . ....... . .......",
"............  ......... ........",
"............  ........ .........",
"............ ......... .........",
"............ ......... .........",
"...................... .........",
"...................... .........",
"...................... .........",
"...................... ...  ....",
"......................  .. .....",
".......................   ......",
"......  ............... ........",
"......  ........................",
"....... ........................",
"....... ........................",
"................................",
"................................",
"....... ........................",
"....... ........................",
"............................... ",
"................................",
"........ .......................",
"........ ......................."
};
