/* XPM */
static char *bd3aebb7f3504cc6e149dd01fdef5ba1hBIY2au18zZXhR3k[] = {
/* columns rows colors chars-per-pixel */
"32 32 13 1 ",
"  c #1A1517",
". c #2E2725",
"X c #242234",
"o c #423934",
"O c #403353",
"+ c #5A4E44",
"@ c #796655",
"# c #A08662",
"$ c #22BBD2",
"% c #C7B08B",
"& c #E4D2AA",
"* c #A6FCDB",
"= c white",
/* pixels */
"OOOOOOOOOOOOXOOOOOOOOOOOOOOOOOOO",
"OOOOOOOOOOOOXOOOOOOOOOOOOOOOOOOO",
"OOOOOOOOOOOOXOOOOOOOOOOOOOOOOOOO",
"OOOOOOOOOOOXXOOOOOOOOOXOOOOOOOOO",
"OOOOOOOOOOOXXOOOOOOOOOXOOOOOOOOO",
"OOOOOOOOOXXXXOOOOOOOOOXOOOOOOOOO",
"OOOOOOOOOOOOXO          OOOOOOOO",
"OOOOOOOOOOOOX @&=&&==###  OOOOOO",
"OOOOOOOOOOOO #&&&==&&&&&&& OOOOO",
"OOOOOOOOOOO &%&%%%%%&&&%%&& OOOO",
"OOOOOOOOOO %%%%&&&&&&&&%%%% OOOO",
"OOOOOOOOO @##%%%%%%%%%%%%o@ OOOO",
"OOOOOOOO #####@%%%%+++@&@o& OOOO",
"OOOOOOOO @@@@+++o+++&&&&@++o OOO",
"OOOOOOO #@@@@@@#+ooo+&&##@oo OOO",
"OOOOOOO &++++&&&@+o+#####@oo+ OO",
"OOOOOO &###&&&&#&#o+@%%%%o#o+ OO",
"OOOOOO &&==&&==&&%#+#%%%%&&### O",
"OOOOOO &&&&==&&%%%@##&&&&&&&&# O",
"OOOOOO #%%%%%%%%%%@#&===&%=%&# O",
"OOOOO #&%%%%%%%%#@&&&&&==&&%%# O",
"OOOOO ##%####%##+o&%%%%%%%%%%## ",
"OOOOO #@@%%%%#&#+o#%%%##+++o@@+ ",
"OOOO* @####++oooo@@@+&&&&++@@@+ ",
"OOO** @@@#@+o++++@##++++@@@@@@+ ",
"OOO** o##@@@##++#@#@@oo++ooo+++ ",
"OOO$* o+@@@@@@##@+o@@@@@oo+++++ ",
"OOOO$* ++oo@@oo++oo@@@oo++++oo *",
"OOOO$***++++++++o..oo@@++++ooo*$",
"OOOOO$$***ooooo****oo**ooooo**$O",
"OOOOOOO$$******$$$$**$$******$OO",
"OOOOOOOOX$$$$$$OOOO$$OO$$$$$$OOO"
};
