/* XPM */
static char *ef08f3e7b02f4428ca4739f55518e8375F3CzqEZd7xPaFJn[] = {
/* columns rows colors chars-per-pixel */
"32 32 9 1 ",
"  c #161924",
". c #242234",
"X c #272336",
"o c #423934",
"O c #403353",
"+ c #796655",
"@ c #A08662",
"# c #C7B08B",
"$ c #E4D2AA",
/* pixels */
"OOOOOOOOOOOO.OOOOOOOOOOOOOOOOOOO",
"OOOOOOOOOOOO.OOOOOOOOOOOOOOOOOOO",
"OOOOOOOOOOOO.OOOOOOOOOOOOOOOOOOO",
"OOOOOOOOOOO..OOOOOOOOO.OooOOOOOO",
"OOOOOOOOOOO..OOOOOOOOO.o@@oOOOOO",
"OOOOOOOOO....OOOOOOOOOo@@@@oOOOO",
"OOOOOOOoooOO.OOOOOOOOo@@@@@@oOOO",
"OOOOOOo@@@oO.OOOOOOOo+@@@@@@@oOO",
"OOOOOo@@@@@o.OOOOOOOo++@@@@@+oOO",
"OOOOo@@@@@$@oO.OOOOOo++++++++oOO",
"OOOo+$@@@@@@+oOOOOOOOo++++++oOOO",
"OOOo++@@$@@++oOOOOOOOOoo@@ooOOOO",
"OOOOo+++++++oOOOOOOOOOo@##@oOOOO",
"OOOOOooooooo.OOOOOOOOO.o#ooOOOOO",
"OOOOOOo#@@oOOOOOOOOOOO.o#oOOOOOO",
"OOOOOo####@oOOOOOOOOOO o#o.OOOOO",
"OOOO..o###o..OOOOOOOO.o###o.OOOO",
"OOOO.........OOOOOOOO. ...  OOOO",
"OOOOO.......OOOOOOOOOO  .. OOOOO",
"OOOOOOOOOOOOOOOOOOOOOOO...OOOOOO",
"OOOOOO..OOOOOOOOOOOOOOO.OOOOOOOO",
"OOOOOO..OOOOOOOOOOOOOOOOOOOOOOOO",
"OOOOOOO.OOOOOOOOOOOOOOOOOOOOOOOO",
"OOOOOOO.OOOOOOOOOOOOOOOOOOOOOOOO",
"OOOOOOOOOOOOOOOOOOOOOOOOOOOOOOOO",
"OOOOOOOOOOOOOOOOOOOOOOOOOOOOOOOO",
"OOOOOOO.OOOOOOOOOOOOOOOOOOOOOOOO",
"OOOOOOO.OOOOOOOOOOOOOOOOOOOOOOOO",
"OOOOOOOOOOOOOOOOOOOOOOOOOOOOOOO.",
"OOOOOOOOOOOOOOOOOOOOOOOOOOOOOOOO",
"OOOOOOOO.OOOOOOOOOOOOOOOOOOOOOOO",
"OOOOOOOO.OOOOOOOOOOOOOOOOOOOOOOO"
};
