/* XPM */
static char *d82dc144e0684759e186e7c3fb0f9820pYCwwiksBSPvBakW[] = {
/* columns rows colors chars-per-pixel */
"32 32 59 1 ",
"  c #272129",
". c #372B3B",
"X c #382C3F",
"o c #6D3C22",
"O c #723F24",
"+ c #654129",
"@ c #6B452B",
"# c #6B452C",
"$ c #734024",
"% c #774327",
"& c #78452A",
"* c #7D4729",
"= c #71492E",
"- c #7F4A2C",
"; c #764D31",
": c #784D31",
"> c #7E5235",
", c #3A2E43",
"< c #3B2F47",
"1 c #403353",
"2 c #804A2A",
"3 c #824C2B",
"4 c #834C2D",
"5 c #844D2D",
"6 c #89502F",
"7 c #8B5130",
"8 c #8C5331",
"9 c #8E5432",
"0 c #855638",
"q c #8A5B3B",
"w c #905432",
"e c #935634",
"r c #965A35",
"t c #9B5B37",
"y c #915F3D",
"u c #9C5F38",
"i c #A05F3A",
"p c #A3633C",
"a c #A6623C",
"s c #A8673E",
"d c #966340",
"f c #9C6642",
"g c #A06944",
"h c #AF6B41",
"j c #A86B48",
"k c #AD714C",
"l c #B2764F",
"z c #B77C53",
"x c #BB8056",
"c c #C08559",
"v c #F1AA45",
"b c #F3AE4A",
"n c #F4B14E",
"m c #F4B553",
"M c #F5B957",
"N c #F6BD5A",
"B c #F6C05F",
"V c #F7C362",
"C c #F7C665",
/* pixels */
"1111<<<X.... ..........X,<<<1111",
"111<X>>>>>>>>>>>>>>>>>>>>>>.<111",
"1<<X>qqdyggggggggffffffdfyy>X<<1",
"<,,>>00%3**O*%%O3***444*%qq>>XX<",
"<>>>q33wrww4ruu*www4rrrr6**>>>><",
"<>>>$rr6rrr4ruu*ruu*ruuw6ww40>><",
"<>>04rr6rrr4rpp*ruu4rppw*uu3y>><",
"<>>q4rr6ruu4wpp6ruu4rppw*pp9y>><",
"<>>q4rr6ruu4wpp6ruu4rppw*pp9y>><",
"<>>q6uu5ruu4wuu6ruu*uppw4ppud>><",
"<>>y6uu5wuu4rrrwrpp4uuur4pp9f>><",
"<>>q6uu2wuu4rrrwrpp6uuu64uu6d>><",
"<>>y666*wuu4uwwwrppwuuur*pp6y>><",
"<>>y6uu2wpp4u66rrppwhppr4ssuy>><",
"<>>ywuu2wpp4urrwrppwurrr6uupy>><",
"<>>ywuu2upp4puuwrss6rrrr6ppuq>><",
"<>>ywpp5pss7suuwrpp6rwwb4ppu0>><",
"<##q6pp8ppp7suuw6pp66mmMNwwr:;;<",
",##;6pp8ppp7srr6ruu6m%%%*VV6=;;<",
",##=6uu8pss4suu6rrr6n**6$MM6=;;,",
",##@4uu6upp4suu6rrr6*vvBC**4=;;X",
",kkc6uu6urr4suuwrrr6u6644rr4xll,",
"Xjjx6uuwrrr4suurrrr6urrrwrr4zjjX",
"Xjjzwuuwrrr4puurrrr6urrrwrr6zjjX",
"Xjjzwuuwrrr4puurrrr6urrrwrr6zjjX",
"X###6rr6rrr4suurprr6urrr6rr6#++X",
"X##=4ww6rrr4pwwwsrr4prrr4ww6>==X",
"X##=4rr6rrr4pwwuhrr4prrr4ww%>==X",
"X##;*rr6rrr4r44psrr4rrrr6rr*>;; ",
"X==;*rr6rrr6rwwurrr*rrrrwrr*>;;X",
"X;;>o44%%%%%%*******444****o;;;X",
"X---&5558wwuaaaaiaateee55555-&&X"
};
