/* XPM */
static char *_d8ec9eed88c456cff72081fd7bd7608PPtZlodwHyAMSM55[] = {
/* columns rows colors chars-per-pixel */
"32 32 22 1 ",
"  c #0C0A07",
". c #291A18",
"X c #241D2B",
"o c #362623",
"O c #3A2B28",
"+ c #242234",
"@ c #30263B",
"# c #4C342F",
"$ c #553D39",
"% c #4C403D",
"& c #554C3C",
"* c #403353",
"= c #425059",
"- c #634A45",
"; c #57636B",
": c #6E7D61",
"> c #B56A68",
", c #87947C",
"< c #C0AC98",
"1 c #D2A394",
"2 c #E4B5A5",
"3 c #DBCBBC",
/* pixels */
"************+*******************",
"************+*******************",
"************+*******************",
"***********++*********+*********",
"***********++*  ** ***+*********",
"*********++   ##  # **+*********",
"********** ###--##-# *+*********",
"*********** --------- +*********",
"********** ----------# *********",
"********** ---##-#---## +*******",
"********* ##--1#-1---- +********",
"********** #-111-11--- *********",
"********** --1 212 1#-- ********",
"********* $->1.222.1>$ *********",
"********** $$1222221$$ *********",
"*********** $$12221$$ +*********",
"************ $ 111 $ *+*********",
"*********** O:O<<<O:O +***++****",
"*********** O:%33<%:O ++**+*****",
"********** OO,%333%,OO +++******",
"******++** %O:%<33%:O% +********",
"******++* %% O%3<3%O %% ********",
"*******+* 21 OO===OO 12 ********",
"*******+**   =======   *********",
"************ =;;;;;= ***********",
"************ =;;=;;= ***********",
"*******+**** =;= =;= ***********",
"*******+**** == * == ***********",
"************ && * oo **********+",
"*************  ** && ***********",
"********+@@@@XX@@@XX@@@@********",
"********+*@@@@@@@@@@@@@*********"
};
