/* XPM */
static char *af4c9939443648b89d7af6fee30e3743PYaepyqfstdZbFmV[] = {
/* columns rows colors chars-per-pixel */
"32 32 21 1 ",
"  c #0C0A07",
". c #291A18",
"X c #241D2B",
"o c #362623",
"O c #3A2B28",
"+ c #242234",
"@ c #30263B",
"# c #4C342F",
"$ c #553D39",
"% c #4C403D",
"& c #554C3C",
"* c #403353",
"= c #425059",
"- c #634A45",
"; c #57636B",
": c #6E7D61",
"> c #B56A68",
", c #C0AC98",
"< c #D2A394",
"1 c #E4B5A5",
"2 c #DBCBBC",
/* pixels */
"************+*******************",
"************+*******************",
"************+*******************",
"***********++*********+*********",
"***********++** *  ***+*********",
"*********++++  # ##  *+*********",
"************ $--#--$#  *********",
"************+ -------#$ ********",
"************ $-------$$ ********",
"************ -##------$ +*******",
"*********** #-<#-#---$## *******",
"************ -<<-<----# ********",
"************ < <1 <-#-$$ *******",
"*********** #<.11.<<>-$ ********",
"************ <1111<<$$$ ********",
"************* <111<$$$ *********",
"************** <<< $$ +*********",
"************* O,,,O:O +***++****",
"************* O22,%%O: +**+*****",
"************* O222O%O: +++******",
"******++***** O,22O%O: +********",
"******++***** O2,2O%O: *********",
"*******+***** O===O11: *********",
"*******+***** ======  **********",
"************* ;;;;== ***********",
"************* ;;=;;= ***********",
"*******+***** ;= =;; ***********",
"*******+***** == =;; ***********",
"************* oo  && **********+",
"************ &&o *  ************",
"********+*@@@XXX@@XX@@@@********",
"********+**@@@@@@@@@@@@*********"
};
