/* XPM */
static char *_a1e208a08564a97f2f9c29b1a6525689GNWlBCu5WqBRVTH[] = {
/* columns rows colors chars-per-pixel */
"32 32 36 1 ",
"  c black",
". c #272129",
"X c #372B3B",
"o c #382C3F",
"O c #654129",
"+ c #6B452B",
"@ c #6B452C",
"# c #78452A",
"$ c #71492E",
"% c #7F4A2C",
"& c #764D31",
"* c #784D31",
"= c #7E5235",
"- c #3A2E43",
"; c #3B2F47",
": c #403353",
"> c #854E2F",
", c #8D5232",
"< c #855638",
"1 c #8A5B3B",
"2 c #905433",
"3 c #935634",
"4 c #9B5B37",
"5 c #915F3D",
"6 c #9C5C39",
"7 c #A05F3A",
"8 c #A6623C",
"9 c #966340",
"0 c #9C6642",
"q c #A06944",
"w c #A86B48",
"e c #AD714C",
"r c #B2764F",
"t c #B77C53",
"y c #BB8056",
"u c #C08559",
/* pixels */
"::::;;;oXXXX.XXXXXXXXXXo-;;;::::",
":::;o======================X;:::",
":;;o=1195qqqqqqqq0000009055=o;;:",
";--==<<                  11==oo;",
";===1                      ====;",
";===                        <==;",
";==<                        5==;",
";==1                        5==;",
";==1                        5==;",
";==1                        9==;",
";==5                        0==;",
";==1                        9==;",
";==5                        5==;",
";==5                        5==;",
";==5                        5==;",
";==5                        1==;",
";==5                        <==;",
";@@1                        *&&;",
"-@@&                        $&&;",
"-@@$                        $&&-",
"-@@+                        $&&o",
"-eeu                        yrr-",
"owwy                        twwo",
"owwt                        twwo",
"owwt                        twwo",
"o@@@                        @OOo",
"o@@$                        =$$o",
"o@@$                        =$$o",
"o@@&                        =&&.",
"o$$&                        =&&o",
"o&&=                        =&&o",
"o%%%%>>>,22688887884333>>>>>%##o"
};
