/* XPM */
static char *f5a6445543784402ce841a862bfcecbfQ5AlzTxWy8J03Uog[] = {
/* columns rows colors chars-per-pixel */
"32 32 22 1 ",
"  c black",
". c #0C0A07",
"X c #291A18",
"o c #241D2B",
"O c #362623",
"+ c #3A2B28",
"@ c #242234",
"# c #30263B",
"$ c #4C342F",
"% c #553D39",
"& c #4C403D",
"* c #554C3C",
"= c #403353",
"- c #425059",
"; c #634A45",
": c #57636B",
"> c #6E7D61",
", c #B56A68",
"< c #C0AC98",
"1 c #D2A394",
"2 c #E4B5A5",
"3 c #DBCBBC",
/* pixels */
"============@===================",
"============@===================",
"============@===================",
"===========@@=========@=========",
"===========@@=...=.===@=========",
"=========@....$$$.$.==@=========",
"=========.$$$%;;;$;.==@=========",
"==========.%;;;;;;;;.=@=========",
"=========.%;;;;;;;;;.=@=========",
"=========.%;;;;$$;;; =@=@=======",
"========.$$%;;;1$;$;% =@========",
"=========.$;;;111;1; =@=========",
"=========.%;;11.21.1% @=========",
"========.$%;,11X22X1 =@=========",
"=========.%%%1122221 =@=========",
"==========.%%%12221 ==@=========",
"===========.%%.111.===@=========",
"===========.+>+<<<+.==@===@@====",
"==========.>+&&33<+.==@@==@=====",
"==========.>+&+333+.===@@@======",
"======@@==.>+&+<33+.===@========",
"======@@==.>+&+3<3+.============",
"=======@==.>22+---+.============",
"=======@===..------.============",
"============.--::::.============",
"============.-::-::.============",
"=======@====.::-.-:.============",
"=======@====.::-.--.============",
"============.**..OO.===========@",
"=============..=.O**.===========",
"========@####oo##ooo###=========",
"========@=############=========="
};
